<svg width="39" height="39" viewBox="0 0 39 39" fill="none" xmlns="http://www.w3.org/2000/svg">
<path d="M12.9409 31.109L1.05724 25.6068C0.791867 25.484 0.479103 25.5282 0.258364 25.7199C0.0375504 25.9116 -0.0503144 26.2149 0.0339853 26.4949L1.62536 31.783L0.0339111 37.0711C-0.118646 37.5297 0.265568 38.0422 0.745297 38.0279C0.850988 38.0279 0.957495 38.0053 1.05724 37.9592L12.9409 32.457C13.5069 32.2064 13.5113 31.361 12.9409 31.109ZM1.93255 35.9169L3.11215 31.9971C3.15419 31.8575 3.15419 31.7086 3.11215 31.5689L1.93255 27.6491L10.8611 31.783L1.93255 35.9169Z" fill="#1B5E37"/>
<path d="M31.3457 0C27.6598 0 24.6611 2.9987 24.6611 6.68457C24.705 10.2919 28.4102 14.2115 30.7858 16.9414C31.0656 17.2773 31.6258 17.2781 31.9055 16.9414C34.2806 14.2129 37.9872 10.2906 38.0303 6.68464C38.0303 2.9987 35.0316 0 31.3457 0ZM31.3457 15.3279C29.3884 13.107 26.1466 9.41647 26.1466 6.68457C26.1466 3.81778 28.4789 1.48546 31.3457 1.48546C34.2125 1.48546 36.5448 3.81778 36.5448 6.68457C36.5448 9.41647 33.3029 13.107 31.3457 15.3279Z" fill="#1B5E37"/>
<path d="M31.3459 3.71387C29.7078 3.71387 28.375 5.04662 28.375 6.68478C28.5244 10.6207 34.1681 10.6196 34.3168 6.68471C34.3168 5.04662 32.9841 3.71387 31.3459 3.71387ZM31.3459 8.17032C30.5268 8.17032 29.8605 7.50394 29.8605 6.68486C29.9352 4.71685 32.757 4.71737 32.8314 6.68486C32.8314 7.50387 32.1649 8.17032 31.3459 8.17032Z" fill="#1B5E37"/>
<path d="M14.6342 17.1964H16.1197C17.1034 17.1602 17.104 15.7473 16.1197 15.7109H14.6342C13.6505 15.7472 13.65 17.1601 14.6342 17.1964Z" fill="#1B5E37"/>
<path d="M8.69222 17.1968C8.71079 17.1968 8.72936 17.1963 8.748 17.1964H10.1779C11.1615 17.1603 11.1623 15.7473 10.1779 15.7109H8.748C8.72505 15.7109 8.7021 15.7111 8.6793 15.7115C7.70506 15.7614 7.71806 17.1644 8.69222 17.1968Z" fill="#1B5E37"/>
<path d="M16.9916 23.063C16.9916 22.6528 16.6591 22.3203 16.2489 22.3203H14.7634C13.7796 22.3566 13.7791 23.7694 14.7634 23.8058H16.2489C16.6591 23.8058 16.9916 23.4733 16.9916 23.063Z" fill="#1B5E37"/>
<path d="M10.307 22.3203H8.8215C7.83775 22.3566 7.83723 23.7694 8.8215 23.8058H10.307C11.2908 23.7695 11.2912 22.3566 10.307 22.3203Z" fill="#1B5E37"/>
<path d="M5.54068 21.3003C6.01566 21.306 6.38428 20.8377 6.26173 20.3768C6.16866 20.0073 6.16116 19.6103 6.23944 19.2373C6.40767 18.2686 5.01996 17.9777 4.78548 18.9333C4.66122 19.5251 4.67325 20.1516 4.82083 20.7379C4.90528 21.0752 5.20802 21.3003 5.54068 21.3003Z" fill="#1B5E37"/>
<path d="M26.518 17.1964H28.0035C28.9872 17.1602 28.9878 15.7473 28.0035 15.7109H26.518C25.5343 15.7472 25.5338 17.1601 26.518 17.1964Z" fill="#1B5E37"/>
<path d="M28.6939 30.6082C28.3304 30.8048 27.9401 30.9361 27.5337 30.9985C26.5644 31.183 26.786 32.5838 27.7593 32.4668C28.3345 32.3784 28.8867 32.1927 29.4005 31.9148C30.2488 31.4176 29.575 30.1703 28.6939 30.6082Z" fill="#1B5E37"/>
<path d="M27.9247 23.9304C28.8772 24.1559 29.2568 22.7892 28.313 22.4966C27.7771 22.3446 27.2042 22.3082 26.647 22.3206C26.2368 22.3206 25.9043 22.6531 25.9043 23.0633C25.9043 23.4735 26.2368 23.806 26.647 23.806H26.9859C27.304 23.8061 27.6199 23.8479 27.9247 23.9304Z" fill="#1B5E37"/>
<path d="M30.9587 25.4847C30.5653 25.6008 30.3405 26.0139 30.4566 26.4072C30.5537 26.7361 30.6029 27.0779 30.6029 27.4233C30.4419 28.731 32.2176 28.7383 32.0883 27.4233C32.0883 26.9355 32.0187 26.4522 31.8813 25.9868C31.7652 25.5933 31.3523 25.3686 30.9587 25.4847Z" fill="#1B5E37"/>
<path d="M17.2511 31.04H15.7656C14.7818 31.0763 14.7813 32.4891 15.7656 32.5255H17.2511C18.2348 32.4893 18.2352 31.0764 17.2511 31.04Z" fill="#1B5E37"/>
<path d="M23.1929 31.04H21.7075C20.7237 31.0763 20.7232 32.4891 21.7075 32.5255H23.1929C24.1767 32.4893 24.1772 31.0764 23.1929 31.04Z" fill="#1B5E37"/>
<path d="M20.5762 17.1964H22.0616C23.0454 17.1602 23.0459 15.7473 22.0616 15.7109H20.5762C19.5923 15.7472 19.5919 17.1601 20.5762 17.1964Z" fill="#1B5E37"/>
<path d="M22.9335 23.063C22.9335 22.6528 22.601 22.3203 22.1907 22.3203H20.7053C19.7215 22.3566 19.721 23.7694 20.7053 23.8058H22.1907C22.601 23.8058 22.9335 23.4733 22.9335 23.063Z" fill="#1B5E37"/>
</svg>
